<svg width="17" height="16" viewBox="0 0 17 16" fill="none" xmlns="http://www.w3.org/2000/svg">
<path d="M10.318 14.3001C10.0587 14.3001 9.81931 14.1616 9.70237 13.9406L7.66079 10.0822C7.54867 9.87031 7.56793 9.61681 7.71031 9.42117L11.0059 5.20007L6.53819 8.31356C6.33115 8.44876 6.06288 8.46567 5.83864 8.36037L1.75616 6.43182C1.51128 6.31547 1.36202 6.07301 1.37715 5.81431C1.3916 5.55561 1.56838 5.32942 1.82564 5.24037L14.8951 0.690365C15.1461 0.603915 15.4288 0.660465 15.6194 0.840515C15.8092 1.01926 15.8711 1.28706 15.7783 1.52496L10.9632 13.875C10.8683 14.1181 10.6296 14.2851 10.3558 14.2988C10.3435 14.2994 10.3304 14.3001 10.318 14.3001Z" fill="white"/>
</svg>
